<mxfile host="app.diagrams.net" modified="2022-01-03T05:01:02.889Z" agent="5.0 (Windows NT 10.0; Win64; x64) AppleWebKit/537.36 (KHTML, like Gecko) Chrome/96.0.4664.110 Safari/537.36 Edg/96.0.1054.62" etag="TDfFRHdPjHplukFpiXhz" version="16.0.3" type="github">
  <diagram id="GK_izQltrLU4BWcHPkbq" name="第 1 页">
    <mxGraphModel dx="1422" dy="794" grid="1" gridSize="10" guides="1" tooltips="1" connect="1" arrows="1" fold="1" page="1" pageScale="1" pageWidth="2336" pageHeight="1654" math="0" shadow="0">
      <root>
        <mxCell id="0" />
        <mxCell id="1" parent="0" />
        <mxCell id="lcjpYeThHuNV42blzGVQ-3" value="" style="edgeStyle=orthogonalEdgeStyle;rounded=0;orthogonalLoop=1;jettySize=auto;html=1;" edge="1" parent="1" source="lcjpYeThHuNV42blzGVQ-1" target="lcjpYeThHuNV42blzGVQ-2">
          <mxGeometry relative="1" as="geometry" />
        </mxCell>
        <mxCell id="lcjpYeThHuNV42blzGVQ-1" value="背景" style="rounded=1;whiteSpace=wrap;html=1;" vertex="1" parent="1">
          <mxGeometry x="180" y="210" width="120" height="60" as="geometry" />
        </mxCell>
        <mxCell id="lcjpYeThHuNV42blzGVQ-5" value="" style="edgeStyle=orthogonalEdgeStyle;rounded=0;orthogonalLoop=1;jettySize=auto;html=1;" edge="1" parent="1" source="lcjpYeThHuNV42blzGVQ-2" target="lcjpYeThHuNV42blzGVQ-4">
          <mxGeometry relative="1" as="geometry" />
        </mxCell>
        <mxCell id="lcjpYeThHuNV42blzGVQ-2" value="用Operator可以解决" style="rounded=1;whiteSpace=wrap;html=1;" vertex="1" parent="1">
          <mxGeometry x="380" y="210" width="120" height="60" as="geometry" />
        </mxCell>
        <mxCell id="lcjpYeThHuNV42blzGVQ-7" value="" style="edgeStyle=orthogonalEdgeStyle;rounded=0;orthogonalLoop=1;jettySize=auto;html=1;" edge="1" parent="1" source="lcjpYeThHuNV42blzGVQ-4" target="lcjpYeThHuNV42blzGVQ-6">
          <mxGeometry relative="1" as="geometry" />
        </mxCell>
        <mxCell id="lcjpYeThHuNV42blzGVQ-9" value="" style="edgeStyle=orthogonalEdgeStyle;rounded=0;orthogonalLoop=1;jettySize=auto;html=1;" edge="1" parent="1" source="lcjpYeThHuNV42blzGVQ-4" target="lcjpYeThHuNV42blzGVQ-8">
          <mxGeometry relative="1" as="geometry" />
        </mxCell>
        <mxCell id="lcjpYeThHuNV42blzGVQ-4" value="如何解决的？" style="rounded=1;whiteSpace=wrap;html=1;" vertex="1" parent="1">
          <mxGeometry x="580" y="210" width="120" height="60" as="geometry" />
        </mxCell>
        <mxCell id="lcjpYeThHuNV42blzGVQ-11" value="" style="edgeStyle=orthogonalEdgeStyle;rounded=0;orthogonalLoop=1;jettySize=auto;html=1;" edge="1" parent="1" source="lcjpYeThHuNV42blzGVQ-6" target="lcjpYeThHuNV42blzGVQ-10">
          <mxGeometry relative="1" as="geometry" />
        </mxCell>
        <mxCell id="lcjpYeThHuNV42blzGVQ-6" value="功能" style="whiteSpace=wrap;html=1;rounded=1;" vertex="1" parent="1">
          <mxGeometry x="780" y="210" width="120" height="60" as="geometry" />
        </mxCell>
        <mxCell id="lcjpYeThHuNV42blzGVQ-8" value="性能表现？" style="whiteSpace=wrap;html=1;rounded=1;" vertex="1" parent="1">
          <mxGeometry x="580" y="350" width="120" height="60" as="geometry" />
        </mxCell>
        <mxCell id="lcjpYeThHuNV42blzGVQ-10" value="可以解决哪些实际问题" style="whiteSpace=wrap;html=1;rounded=1;" vertex="1" parent="1">
          <mxGeometry x="980" y="210" width="120" height="60" as="geometry" />
        </mxCell>
      </root>
    </mxGraphModel>
  </diagram>
</mxfile>
